<?xml version="1.0" standalone="no"?>
<!DOCTYPE svg PUBLIC "-//W3C//DTD SVG 20010904//EN"
 "http://www.w3.org/TR/2001/REC-SVG-20010904/DTD/svg10.dtd">
<svg version="1.0" xmlns="http://www.w3.org/2000/svg"
 width="1012.000000pt" height="1012.000000pt" viewBox="0 0 1012.000000 1012.000000"
 preserveAspectRatio="xMidYMid meet">
<metadata>
Created by potrace 1.14, written by Peter Selinger 2001-2017
</metadata>
<g transform="translate(0.000000,1012.000000) scale(0.100000,-0.100000)"
fill="#000000" stroke="none">
<path d="M6080 10113 c-418 -62 -640 -221 -975 -697 -95 -135 -178 -224 -245
-260 -28 -15 -50 -24 -50 -21 0 3 18 33 41 66 78 115 100 191 79 268 -12 47
-20 48 -92 8 -47 -26 -77 -69 -131 -188 -118 -262 -232 -348 -604 -454 -70
-20 -162 -48 -203 -62 -41 -13 -79 -26 -85 -27 -28 -8 -129 -52 -200 -88 -151
-77 -267 -165 -448 -341 -59 -58 -130 -124 -159 -148 -28 -24 -56 -49 -62 -54
-36 -33 -216 -150 -284 -184 -34 -17 -147 -60 -250 -95 -103 -35 -205 -72
-227 -81 -159 -67 -357 -190 -445 -276 -157 -154 -180 -249 -67 -277 51 -13
187 -9 267 8 89 19 160 23 160 9 0 -6 -14 -40 -31 -74 -29 -60 -68 -104 -196
-220 -31 -28 -64 -71 -80 -104 -26 -51 -28 -66 -28 -171 0 -63 3 -138 7 -166
27 -182 122 -324 275 -406 64 -35 197 -79 273 -92 39 -6 184 -45 271 -73 46
-14 58 -23 67 -47 14 -37 12 -39 -24 -25 -52 19 -106 23 -319 20 -132 -2 -126
-3 -250 52 -143 63 -184 76 -276 84 -63 6 -110 -12 -130 -49 -22 -40 -6 -154
36 -258 21 -52 49 -113 64 -135 136 -214 344 -326 681 -369 160 -20 892 -15
960 7 97 31 185 92 279 193 72 77 207 271 271 389 18 33 39 69 45 80 12 19 50
90 143 265 25 47 53 97 61 112 9 14 33 55 53 90 93 162 183 266 308 360 41 31
93 73 115 93 22 20 76 64 120 98 288 220 426 371 535 582 90 177 147 429 154
682 0 24 2 43 3 43 12 0 70 -74 87 -110 18 -40 21 -64 21 -220 0 -196 -4 -233
-40 -341 -64 -191 -198 -358 -455 -569 -30 -25 -57 -47 -60 -50 -3 -3 -27 -23
-55 -45 -59 -47 -213 -175 -270 -225 -135 -118 -299 -292 -408 -435 -96 -126
-219 -335 -280 -475 -8 -19 -27 -61 -41 -93 -42 -92 -109 -301 -200 -617 -126
-442 -190 -643 -231 -735 -8 -16 -26 -59 -41 -95 -31 -76 -120 -253 -164 -325
-16 -27 -33 -57 -37 -65 -5 -8 -35 -62 -67 -119 -114 -201 -243 -487 -321
-711 -39 -114 -103 -351 -111 -415 -2 -22 -9 -69 -15 -105 -10 -62 -14 -323
-5 -338 2 -4 7 -34 10 -67 4 -33 9 -67 11 -75 2 -8 6 -33 10 -55 6 -45 49
-248 65 -310 6 -22 13 -50 15 -62 27 -121 129 -430 149 -451 3 -3 31 0 62 7
63 15 91 39 213 187 181 218 449 398 744 498 93 32 299 87 377 101 14 2 93 18
175 35 83 17 161 33 175 36 115 22 379 97 460 130 116 49 255 129 395 229 88
63 176 122 195 131 19 9 42 22 50 29 23 18 179 72 246 84 32 6 70 13 84 16 14
3 50 7 80 11 30 3 66 7 80 9 14 2 52 7 85 10 33 4 71 8 85 10 263 30 558 122
810 253 100 52 209 120 238 149 7 7 17 13 22 13 20 0 233 223 302 316 112 151
208 350 252 521 21 83 26 109 32 193 3 41 7 81 10 88 6 21 -22 25 -63 7 -74
-33 -123 -60 -123 -67 0 -5 -5 -8 -11 -8 -5 0 -45 -24 -87 -54 -311 -217 -400
-277 -476 -321 -176 -101 -341 -207 -529 -338 -251 -176 -384 -257 -417 -257
-29 0 62 139 146 223 112 114 226 194 544 384 191 115 346 220 461 314 123
100 302 252 338 288 70 69 188 211 249 298 34 48 65 93 70 98 23 29 140 239
172 309 33 73 85 206 96 246 40 159 44 201 49 590 2 203 8 305 18 354 34 158
11 292 -80 471 -88 174 -122 243 -127 265 -4 14 -11 34 -16 45 -22 49 -28 151
-27 455 0 179 -2 341 -6 360 -32 176 -59 260 -118 368 -34 63 -135 205 -181
254 -7 7 -40 45 -73 83 -33 39 -62 72 -65 75 -3 3 -44 55 -91 115 -115 147
-183 250 -329 500 -281 480 -433 660 -666 791 -61 34 -200 89 -246 98 -13 2
-41 8 -63 14 -22 6 -60 14 -85 17 -49 8 -370 14 -410 8z m450 -307 c127 -30
302 -107 345 -150 9 -9 20 -16 24 -16 14 0 159 -147 210 -212 29 -38 50 -68
47 -68 -40 0 -214 101 -280 161 -30 29 -176 97 -241 113 -182 46 -375 37 -513
-24 -63 -28 -211 -122 -377 -240 -161 -114 -259 -168 -365 -203 -83 -28 -190
-44 -190 -28 0 11 61 120 92 164 47 68 122 130 297 246 217 144 410 227 599
257 20 3 39 7 41 9 5 6 284 -2 311 -9z m238 -611 c62 -38 170 -116 208 -150 6
-5 31 -26 55 -47 314 -261 771 -736 910 -947 76 -114 73 -114 -86 -17 -59 36
-109 66 -111 66 -6 0 -371 247 -384 260 -3 3 -23 18 -45 35 -98 73 -204 211
-274 357 -59 122 -105 184 -275 364 -74 79 -104 124 -82 124 6 0 45 -20 84
-45z m-495 -41 c160 -67 301 -195 423 -382 186 -287 209 -317 335 -443 126
-125 277 -235 442 -323 84 -44 156 -102 168 -134 5 -14 8 -26 6 -28 -6 -6
-205 52 -272 79 -136 55 -286 135 -356 191 -15 12 -39 30 -55 41 -65 45 -185
162 -274 264 -30 35 -60 69 -66 75 -5 6 -52 66 -102 133 -110 144 -201 232
-284 274 -72 36 -84 39 -164 40 -64 0 -184 -36 -279 -83 -98 -50 -178 -68
-301 -68 -104 0 -115 2 -138 23 -14 14 -23 31 -21 43 2 10 4 31 4 46 1 35 55
89 124 125 67 35 219 105 232 107 6 1 15 4 20 8 32 19 160 48 245 55 36 3 66
6 68 7 9 9 194 -29 245 -50z m-2552 -651 c-36 -119 -100 -211 -160 -235 -50
-19 -110 -16 -137 7 -29 25 -30 34 -4 83 42 78 123 139 243 183 77 27 78 27
58 -38z m354 -304 c87 -26 158 -61 212 -105 57 -47 62 -67 24 -105 -72 -72
-209 -132 -329 -145 -34 -4 -66 -12 -70 -19 -4 -7 -25 -22 -48 -33 -61 -31
-362 -130 -417 -137 -45 -6 -48 -6 -39 12 15 27 44 51 93 76 52 26 55 40 28
169 -22 108 -15 123 69 155 35 13 92 27 128 32 78 11 148 54 139 86 -3 11 -8
32 -11 46 l-5 26 78 -18 c43 -10 109 -28 148 -40z m2435 -258 c64 -26 148 -72
285 -157 136 -83 167 -98 342 -165 171 -66 268 -109 327 -147 242 -156 606
-562 735 -819 25 -51 71 -186 86 -253 41 -190 48 -234 48 -326 0 -101 -27
-159 -86 -187 -22 -10 -42 -28 -48 -44 -5 -14 -12 -87 -14 -162 -10 -289 -23
-357 -92 -495 -31 -61 -167 -282 -183 -296 -3 -3 -28 -36 -55 -75 -110 -158
-163 -225 -252 -315 -51 -53 -103 -110 -116 -127 l-23 -32 -31 20 c-21 13 -33
31 -37 54 -8 41 -30 45 -98 18 -104 -40 -154 -99 -298 -353 -51 -91 -111 -189
-132 -217 -39 -53 -119 -136 -125 -129 -8 8 31 165 58 233 46 115 149 308 250
463 16 25 32 52 36 60 5 8 42 67 83 130 68 103 105 161 135 212 195 328 247
460 295 748 7 41 14 83 16 92 40 217 49 561 19 723 -60 327 -190 580 -410 800
-100 101 -157 146 -325 260 -180 122 -290 208 -355 276 -59 62 -135 161 -135
177 0 4 -9 18 -20 32 -43 56 -17 56 120 1z m-3147 -320 c-34 -29 -118 -57
-109 -37 26 61 28 62 85 63 l56 1 -32 -27z m2567 -420 c74 -291 65 -254 97
-426 20 -109 25 -176 27 -305 1 -219 -9 -300 -60 -450 -89 -262 -261 -468
-544 -652 -298 -193 -360 -235 -448 -302 -145 -109 -273 -228 -373 -347 -24
-28 -48 -57 -54 -63 -34 -38 -122 -165 -179 -260 -121 -200 -172 -324 -271
-663 -22 -73 -42 -133 -45 -133 -6 0 -13 115 -13 230 -1 269 54 447 270 883
178 358 328 541 580 708 41 27 76 49 78 49 7 0 295 175 350 213 271 187 418
428 461 752 3 22 8 51 11 65 9 46 11 334 3 395 -39 281 -34 403 20 513 12 24
23 42 25 40 2 -2 31 -113 65 -247z m575 -5 c7 -11 28 -57 45 -101 26 -66 171
-357 317 -635 16 -30 42 -84 57 -120 16 -36 37 -83 47 -105 26 -58 75 -213 84
-265 4 -25 10 -54 12 -65 3 -11 7 -78 8 -150 5 -190 -30 -360 -116 -577 -40
-101 -162 -350 -204 -418 -12 -19 -60 -96 -106 -170 -182 -295 -292 -414 -556
-598 -18 -12 -34 -22 -37 -22 -2 0 -34 -18 -70 -40 -37 -23 -214 -114 -394
-204 -381 -189 -459 -234 -607 -345 -85 -64 -242 -224 -299 -304 -65 -93 -147
-261 -186 -382 -50 -154 -45 -147 -70 -92 -27 59 -33 162 -14 237 29 114 135
292 257 431 22 24 96 103 165 174 70 72 156 164 191 205 116 134 294 303 391
372 52 37 167 109 255 160 239 139 356 220 453 316 91 90 103 104 188 212 124
159 232 337 300 494 25 58 47 114 50 123 2 10 15 60 29 111 13 51 28 121 32
155 10 77 10 345 0 412 -27 189 -49 284 -155 665 -53 190 -70 257 -86 350 -9
50 -37 181 -42 194 -9 22 45 6 61 -18z"/>
<path d="M3720 8016 c-43 -15 -70 -63 -70 -123 0 -47 -1 -47 95 -46 169 1 252
34 270 106 6 22 2 26 -27 35 -121 39 -209 48 -268 28z"/>
<path d="M1585 6903 c-109 -16 -145 -124 -141 -422 2 -117 7 -188 16 -211 20
-53 58 -106 97 -136 32 -24 35 -25 59 -9 47 31 84 77 84 106 0 15 -7 58 -16
96 -13 52 -16 113 -15 255 1 103 -3 209 -9 235 -11 51 -29 94 -39 92 -3 -1
-19 -4 -36 -6z"/>
<path d="M3479 5133 c-183 -108 -524 -416 -699 -632 -19 -24 -41 -49 -47 -56
-35 -36 -184 -271 -221 -348 -52 -108 -97 -240 -110 -327 -15 -91 -8 -314 11
-375 8 -27 31 -88 50 -134 20 -46 38 -93 40 -103 5 -17 12 -18 64 -13 32 4 73
14 91 22 86 40 233 265 336 515 34 82 82 223 92 269 18 86 24 125 24 152 l0
29 -57 -7 c-70 -8 -133 -38 -171 -80 -32 -34 -90 -131 -119 -196 -77 -174
-107 -228 -129 -233 -12 -3 -29 -9 -37 -12 -14 -5 -14 0 -1 49 68 260 295 582
564 800 140 113 299 286 397 433 78 114 100 202 63 242 -11 12 -24 22 -28 23
-59 7 -74 5 -113 -18z"/>
<path d="M2469 4918 c0 -7 -2 -75 -2 -151 -2 -120 0 -137 14 -137 31 0 80 22
90 42 15 27 9 141 -11 201 -16 49 -19 52 -53 55 -25 2 -37 -1 -38 -10z"/>
</g>
</svg>
